<?xml version="1.0" encoding="UTF-8" standalone="no"?>
<!-- Created with Inkscape (http://www.inkscape.org/) -->

<svg
   xmlns:dc="http://purl.org/dc/elements/1.1/"
   xmlns:cc="http://creativecommons.org/ns#"
   xmlns:rdf="http://www.w3.org/1999/02/22-rdf-syntax-ns#"
   xmlns:svg="http://www.w3.org/2000/svg"
   xmlns="http://www.w3.org/2000/svg"
   xmlns:sodipodi="http://sodipodi.sourceforge.net/DTD/sodipodi-0.dtd"
   xmlns:inkscape="http://www.inkscape.org/namespaces/inkscape"
   width="4.3899999cm"
   height="5.0799999cm"
   viewBox="0 0 43.899999 50.799998"
   version="1.1"
   id="svg8"
   inkscape:version="0.92.4 (5da689c313, 2019-01-14)"
   sodipodi:docname="umr1283_8199.svg"
   inkscape:export-filename="D:\Profils\mcanouil\PROJECTS\hex-stickers\PNG\umr1283_8199.png"
   inkscape:export-xdpi="1278.679"
   inkscape:export-ydpi="1278.679">
  <defs
     id="defs2">
    <linearGradient
       id="c"
       x1="52.525002"
       x2="123.74"
       y1="307.28"
       y2="384.73999"
       gradientUnits="userSpaceOnUse"
       gradientTransform="matrix(0.12764217,0.18645446,0.09897154,-0.0677535,-29.082616,39.05697)">
      <stop
         stop-color="#faa"
         offset="0"
         id="stop5" />
      <stop
         stop-color="#faa"
         stop-opacity="0"
         offset="1"
         id="stop7" />
    </linearGradient>
    <linearGradient
       id="b"
       x1="221.62"
       x2="272.03"
       gradientUnits="userSpaceOnUse">
      <stop
         stop-color="#eadcda"
         offset="0"
         id="stop10" />
      <stop
         stop-color="#eadcda"
         stop-opacity="0"
         offset="1"
         id="stop12" />
    </linearGradient>
    <filter
       id="d">
      <feGaussianBlur
         stdDeviation="1.8647"
         id="feGaussianBlur2" />
    </filter>
    <linearGradient
       id="a"
       x1="4.6877999"
       x2="8.4317999"
       y1="4.3028002"
       y2="4.204"
       gradientUnits="userSpaceOnUse"
       gradientTransform="matrix(1.414788,2.0666644,1.9909785,-1.3629753,1.0173523,27.067271)">
      <stop
         stop-color="#4e0f6d"
         offset="0"
         id="stop15" />
      <stop
         stop-color="#4e0f6d"
         stop-opacity="0"
         offset="1"
         id="stop17" />
    </linearGradient>
    <filter
       style="color-interpolation-filters:sRGB"
       inkscape:label="Colorize"
       id="filter15128">
      <feComposite
         in2="SourceGraphic"
         operator="arithmetic"
         k1="2.77556e-17"
         k2="0"
         result="composite1"
         id="feComposite15114"
         k3="0"
         k4="0" />
      <feColorMatrix
         in="composite1"
         values="1"
         type="saturate"
         result="colormatrix1"
         id="feColorMatrix15116" />
      <feFlood
         flood-opacity="1"
         flood-color="rgb(255,85,85)"
         result="flood1"
         id="feFlood15118" />
      <feBlend
         in="flood1"
         in2="colormatrix1"
         mode="multiply"
         result="blend1"
         id="feBlend15120" />
      <feBlend
         in2="blend1"
         mode="screen"
         result="blend2"
         id="feBlend15122" />
      <feColorMatrix
         in="blend2"
         values="1"
         type="saturate"
         result="colormatrix2"
         id="feColorMatrix15124" />
      <feComposite
         in="colormatrix2"
         in2="SourceGraphic"
         operator="in"
         result="fbSourceGraphic"
         id="feComposite15126" />
      <feColorMatrix
         result="fbSourceGraphicAlpha"
         in="fbSourceGraphic"
         values="0 0 0 -1 0 0 0 0 -1 0 0 0 0 -1 0 0 0 0 1 0"
         id="feColorMatrix18120" />
      <feComposite
         in2="fbSourceGraphic"
         id="feComposite18122"
         operator="arithmetic"
         k1="2.77556e-17"
         k2="0"
         result="composite1"
         in="fbSourceGraphic"
         k3="0"
         k4="0" />
      <feColorMatrix
         id="feColorMatrix18124"
         in="composite1"
         values="1"
         type="saturate"
         result="colormatrix1" />
      <feFlood
         id="feFlood18126"
         flood-opacity="1"
         flood-color="rgb(255,42,42)"
         result="flood1" />
      <feBlend
         in2="colormatrix1"
         id="feBlend18128"
         in="flood1"
         mode="multiply"
         result="blend1" />
      <feBlend
         in2="blend1"
         id="feBlend18130"
         mode="screen"
         result="blend2" />
      <feColorMatrix
         id="feColorMatrix18132"
         in="blend2"
         values="1"
         type="saturate"
         result="colormatrix2" />
      <feComposite
         in2="fbSourceGraphic"
         id="feComposite18134"
         in="colormatrix2"
         operator="in"
         result="fbSourceGraphic" />
      <feColorMatrix
         result="fbSourceGraphicAlpha"
         in="fbSourceGraphic"
         values="0 0 0 -1 0 0 0 0 -1 0 0 0 0 -1 0 0 0 0 1 0"
         id="feColorMatrix18136" />
      <feComposite
         in2="fbSourceGraphic"
         id="feComposite18138"
         operator="arithmetic"
         k1="2.77556e-17"
         k2="0"
         result="composite1"
         in="fbSourceGraphic"
         k3="0"
         k4="0" />
      <feColorMatrix
         id="feColorMatrix18140"
         in="composite1"
         values="1"
         type="saturate"
         result="colormatrix1" />
      <feFlood
         id="feFlood18142"
         flood-opacity="1"
         flood-color="rgb(255,42,42)"
         result="flood1" />
      <feBlend
         in2="colormatrix1"
         id="feBlend18144"
         in="flood1"
         mode="multiply"
         result="blend1" />
      <feBlend
         in2="blend1"
         id="feBlend18146"
         mode="screen"
         result="blend2" />
      <feColorMatrix
         id="feColorMatrix18148"
         in="blend2"
         values="1"
         type="saturate"
         result="colormatrix2" />
      <feComposite
         in2="fbSourceGraphic"
         id="feComposite18150"
         in="colormatrix2"
         operator="in"
         result="fbSourceGraphic" />
      <feColorMatrix
         result="fbSourceGraphicAlpha"
         in="fbSourceGraphic"
         values="0 0 0 -1 0 0 0 0 -1 0 0 0 0 -1 0 0 0 0 1 0"
         id="feColorMatrix18152" />
      <feComposite
         in2="fbSourceGraphic"
         id="feComposite18154"
         operator="arithmetic"
         k1="2.77556e-17"
         k2="0"
         result="composite1"
         in="fbSourceGraphic"
         k3="0"
         k4="0" />
      <feColorMatrix
         id="feColorMatrix18156"
         in="composite1"
         values="1"
         type="saturate"
         result="colormatrix1" />
      <feFlood
         id="feFlood18158"
         flood-opacity="1"
         flood-color="rgb(255,42,42)"
         result="flood1" />
      <feBlend
         in2="colormatrix1"
         id="feBlend18160"
         in="flood1"
         mode="multiply"
         result="blend1" />
      <feBlend
         in2="blend1"
         id="feBlend18162"
         mode="screen"
         result="blend2" />
      <feColorMatrix
         id="feColorMatrix18164"
         in="blend2"
         values="1"
         type="saturate"
         result="colormatrix2" />
      <feComposite
         in2="fbSourceGraphic"
         id="feComposite18166"
         in="colormatrix2"
         operator="in"
         result="fbSourceGraphic" />
      <feColorMatrix
         result="fbSourceGraphicAlpha"
         in="fbSourceGraphic"
         values="0 0 0 -1 0 0 0 0 -1 0 0 0 0 -1 0 0 0 0 1 0"
         id="feColorMatrix18168" />
      <feComposite
         in2="fbSourceGraphic"
         id="feComposite18170"
         operator="arithmetic"
         k1="2.77556e-17"
         k2="0"
         result="composite1"
         in="fbSourceGraphic"
         k3="0"
         k4="0" />
      <feColorMatrix
         id="feColorMatrix18172"
         in="composite1"
         values="1"
         type="saturate"
         result="colormatrix1" />
      <feFlood
         id="feFlood18174"
         flood-opacity="1"
         flood-color="rgb(255,42,42)"
         result="flood1" />
      <feBlend
         in2="colormatrix1"
         id="feBlend18176"
         in="flood1"
         mode="multiply"
         result="blend1" />
      <feBlend
         in2="blend1"
         id="feBlend18178"
         mode="screen"
         result="blend2" />
      <feColorMatrix
         id="feColorMatrix18180"
         in="blend2"
         values="1"
         type="saturate"
         result="colormatrix2" />
      <feComposite
         in2="fbSourceGraphic"
         id="feComposite18182"
         in="colormatrix2"
         operator="in"
         result="fbSourceGraphic" />
      <feColorMatrix
         result="fbSourceGraphicAlpha"
         in="fbSourceGraphic"
         values="0 0 0 -1 0 0 0 0 -1 0 0 0 0 -1 0 0 0 0 1 0"
         id="feColorMatrix18184" />
      <feComposite
         in2="fbSourceGraphic"
         id="feComposite18186"
         operator="arithmetic"
         k1="2.77556e-17"
         k2="0"
         result="composite1"
         in="fbSourceGraphic"
         k3="0"
         k4="0" />
      <feColorMatrix
         id="feColorMatrix18188"
         in="composite1"
         values="1"
         type="saturate"
         result="colormatrix1" />
      <feFlood
         id="feFlood18190"
         flood-opacity="1"
         flood-color="rgb(255,42,42)"
         result="flood1" />
      <feBlend
         in2="colormatrix1"
         id="feBlend18192"
         in="flood1"
         mode="multiply"
         result="blend1" />
      <feBlend
         in2="blend1"
         id="feBlend18194"
         mode="screen"
         result="blend2" />
      <feColorMatrix
         id="feColorMatrix18196"
         in="blend2"
         values="1"
         type="saturate"
         result="colormatrix2" />
      <feComposite
         in2="fbSourceGraphic"
         id="feComposite18198"
         in="colormatrix2"
         operator="in"
         result="fbSourceGraphic" />
      <feColorMatrix
         result="fbSourceGraphicAlpha"
         in="fbSourceGraphic"
         values="0 0 0 -1 0 0 0 0 -1 0 0 0 0 -1 0 0 0 0 1 0"
         id="feColorMatrix18200" />
      <feComposite
         in2="fbSourceGraphic"
         id="feComposite18202"
         operator="arithmetic"
         k1="2.77556e-17"
         k2="0"
         result="composite1"
         in="fbSourceGraphic"
         k3="0"
         k4="0" />
      <feColorMatrix
         id="feColorMatrix18204"
         in="composite1"
         values="1"
         type="saturate"
         result="colormatrix1" />
      <feFlood
         id="feFlood18206"
         flood-opacity="1"
         flood-color="rgb(255,42,42)"
         result="flood1" />
      <feBlend
         in2="colormatrix1"
         id="feBlend18208"
         in="flood1"
         mode="multiply"
         result="blend1" />
      <feBlend
         in2="blend1"
         id="feBlend18210"
         mode="screen"
         result="blend2" />
      <feColorMatrix
         id="feColorMatrix18212"
         in="blend2"
         values="1"
         type="saturate"
         result="colormatrix2" />
      <feComposite
         in2="fbSourceGraphic"
         id="feComposite18214"
         in="colormatrix2"
         operator="in"
         result="fbSourceGraphic" />
      <feColorMatrix
         result="fbSourceGraphicAlpha"
         in="fbSourceGraphic"
         values="0 0 0 -1 0 0 0 0 -1 0 0 0 0 -1 0 0 0 0 1 0"
         id="feColorMatrix18216" />
      <feComposite
         in2="fbSourceGraphic"
         id="feComposite18218"
         operator="arithmetic"
         k1="2.77556e-17"
         k2="0"
         result="composite1"
         in="fbSourceGraphic"
         k3="0"
         k4="0" />
      <feColorMatrix
         id="feColorMatrix18220"
         in="composite1"
         values="1"
         type="saturate"
         result="colormatrix1" />
      <feFlood
         id="feFlood18222"
         flood-opacity="1"
         flood-color="rgb(255,42,42)"
         result="flood1" />
      <feBlend
         in2="colormatrix1"
         id="feBlend18224"
         in="flood1"
         mode="multiply"
         result="blend1" />
      <feBlend
         in2="blend1"
         id="feBlend18226"
         mode="screen"
         result="blend2" />
      <feColorMatrix
         id="feColorMatrix18228"
         in="blend2"
         values="1"
         type="saturate"
         result="colormatrix2" />
      <feComposite
         in2="fbSourceGraphic"
         id="feComposite18230"
         in="colormatrix2"
         operator="in"
         result="fbSourceGraphic" />
      <feColorMatrix
         result="fbSourceGraphicAlpha"
         in="fbSourceGraphic"
         values="0 0 0 -1 0 0 0 0 -1 0 0 0 0 -1 0 0 0 0 1 0"
         id="feColorMatrix18232" />
      <feComposite
         in2="fbSourceGraphic"
         id="feComposite18234"
         operator="arithmetic"
         k1="2.77556e-17"
         k2="0"
         result="composite1"
         in="fbSourceGraphic"
         k3="0"
         k4="0" />
      <feColorMatrix
         id="feColorMatrix18236"
         in="composite1"
         values="1"
         type="saturate"
         result="colormatrix1" />
      <feFlood
         id="feFlood18238"
         flood-opacity="1"
         flood-color="rgb(255,42,42)"
         result="flood1" />
      <feBlend
         in2="colormatrix1"
         id="feBlend18240"
         in="flood1"
         mode="multiply"
         result="blend1" />
      <feBlend
         in2="blend1"
         id="feBlend18242"
         mode="screen"
         result="blend2" />
      <feColorMatrix
         id="feColorMatrix18244"
         in="blend2"
         values="1"
         type="saturate"
         result="colormatrix2" />
      <feComposite
         in2="fbSourceGraphic"
         id="feComposite18246"
         in="colormatrix2"
         operator="in"
         result="fbSourceGraphic" />
      <feColorMatrix
         result="fbSourceGraphicAlpha"
         in="fbSourceGraphic"
         values="0 0 0 -1 0 0 0 0 -1 0 0 0 0 -1 0 0 0 0 1 0"
         id="feColorMatrix18248" />
      <feComposite
         in2="fbSourceGraphic"
         id="feComposite18250"
         operator="arithmetic"
         k1="2.77556e-17"
         k2="0"
         result="composite1"
         in="fbSourceGraphic"
         k3="0"
         k4="0" />
      <feColorMatrix
         id="feColorMatrix18252"
         in="composite1"
         values="1"
         type="saturate"
         result="colormatrix1" />
      <feFlood
         id="feFlood18254"
         flood-opacity="1"
         flood-color="rgb(255,42,42)"
         result="flood1" />
      <feBlend
         in2="colormatrix1"
         id="feBlend18256"
         in="flood1"
         mode="multiply"
         result="blend1" />
      <feBlend
         in2="blend1"
         id="feBlend18258"
         mode="screen"
         result="blend2" />
      <feColorMatrix
         id="feColorMatrix18260"
         in="blend2"
         values="1"
         type="saturate"
         result="colormatrix2" />
      <feComposite
         in2="fbSourceGraphic"
         id="feComposite18262"
         in="colormatrix2"
         operator="in"
         result="fbSourceGraphic" />
      <feColorMatrix
         result="fbSourceGraphicAlpha"
         in="fbSourceGraphic"
         values="0 0 0 -1 0 0 0 0 -1 0 0 0 0 -1 0 0 0 0 1 0"
         id="feColorMatrix18264" />
      <feComposite
         in2="fbSourceGraphic"
         id="feComposite18266"
         operator="arithmetic"
         k1="2.77556e-17"
         k2="0"
         result="composite1"
         in="fbSourceGraphic"
         k3="0"
         k4="0" />
      <feColorMatrix
         id="feColorMatrix18268"
         in="composite1"
         values="1"
         type="saturate"
         result="colormatrix1" />
      <feFlood
         id="feFlood18270"
         flood-opacity="1"
         flood-color="rgb(255,42,42)"
         result="flood1" />
      <feBlend
         in2="colormatrix1"
         id="feBlend18272"
         in="flood1"
         mode="multiply"
         result="blend1" />
      <feBlend
         in2="blend1"
         id="feBlend18274"
         mode="screen"
         result="blend2" />
      <feColorMatrix
         id="feColorMatrix18276"
         in="blend2"
         values="1"
         type="saturate"
         result="colormatrix2" />
      <feComposite
         in2="fbSourceGraphic"
         id="feComposite18278"
         in="colormatrix2"
         operator="in"
         result="fbSourceGraphic" />
      <feColorMatrix
         result="fbSourceGraphicAlpha"
         in="fbSourceGraphic"
         values="0 0 0 -1 0 0 0 0 -1 0 0 0 0 -1 0 0 0 0 1 0"
         id="feColorMatrix18280" />
      <feComposite
         in2="fbSourceGraphic"
         id="feComposite18282"
         operator="arithmetic"
         k1="2.77556e-17"
         k2="0"
         result="composite1"
         in="fbSourceGraphic"
         k3="0"
         k4="0" />
      <feColorMatrix
         id="feColorMatrix18284"
         in="composite1"
         values="1"
         type="saturate"
         result="colormatrix1" />
      <feFlood
         id="feFlood18286"
         flood-opacity="1"
         flood-color="rgb(255,42,42)"
         result="flood1" />
      <feBlend
         in2="colormatrix1"
         id="feBlend18288"
         in="flood1"
         mode="multiply"
         result="blend1" />
      <feBlend
         in2="blend1"
         id="feBlend18290"
         mode="screen"
         result="blend2" />
      <feColorMatrix
         id="feColorMatrix18292"
         in="blend2"
         values="1"
         type="saturate"
         result="colormatrix2" />
      <feComposite
         in2="fbSourceGraphic"
         id="feComposite18294"
         in="colormatrix2"
         operator="in"
         result="fbSourceGraphic" />
      <feColorMatrix
         result="fbSourceGraphicAlpha"
         in="fbSourceGraphic"
         values="0 0 0 -1 0 0 0 0 -1 0 0 0 0 -1 0 0 0 0 1 0"
         id="feColorMatrix18296" />
      <feComposite
         in2="fbSourceGraphic"
         id="feComposite18298"
         operator="arithmetic"
         k1="2.77556e-17"
         k2="0"
         result="composite1"
         in="fbSourceGraphic"
         k3="0"
         k4="0" />
      <feColorMatrix
         id="feColorMatrix18300"
         in="composite1"
         values="1"
         type="saturate"
         result="colormatrix1" />
      <feFlood
         id="feFlood18302"
         flood-opacity="1"
         flood-color="rgb(255,42,42)"
         result="flood1" />
      <feBlend
         in2="colormatrix1"
         id="feBlend18304"
         in="flood1"
         mode="multiply"
         result="blend1" />
      <feBlend
         in2="blend1"
         id="feBlend18306"
         mode="screen"
         result="blend2" />
      <feColorMatrix
         id="feColorMatrix18308"
         in="blend2"
         values="1"
         type="saturate"
         result="colormatrix2" />
      <feComposite
         in2="fbSourceGraphic"
         id="feComposite18310"
         in="colormatrix2"
         operator="in"
         result="composite2" />
    </filter>
    <clipPath
       clipPathUnits="userSpaceOnUse"
       id="clipPath958">
      <path
         d="M 3.398,0 H 260.334 V 52.034 H 3.398 Z"
         id="path956"
         inkscape:connector-curvature="0" />
    </clipPath>
    <clipPath
       clipPathUnits="userSpaceOnUse"
       id="clipPath958-3">
      <path
         d="M 3.398,0 H 260.334 V 52.034 H 3.398 Z"
         id="path956-9"
         inkscape:connector-curvature="0" />
    </clipPath>
  </defs>
  <sodipodi:namedview
     id="base"
     pagecolor="#ffffff"
     bordercolor="#666666"
     borderopacity="1.0"
     inkscape:pageopacity="0.0"
     inkscape:pageshadow="2"
     inkscape:zoom="2.8284272"
     inkscape:cx="138.09533"
     inkscape:cy="115.69874"
     inkscape:document-units="mm"
     inkscape:current-layer="g1809"
     showgrid="false"
     inkscape:snap-global="true"
     showguides="false"
     inkscape:snap-bbox="true"
     inkscape:snap-center="true"
     inkscape:window-width="1920"
     inkscape:window-height="1001"
     inkscape:window-x="-9"
     inkscape:window-y="-9"
     inkscape:window-maximized="1"
     units="cm">
    <inkscape:grid
       type="xygrid"
       id="grid3723"
       originx="-3.4499993"
       originy="-1.8773803e-05" />
  </sodipodi:namedview>
  <metadata
     id="metadata5">
    <rdf:RDF>
      <cc:Work
         rdf:about="">
        <dc:format>image/svg+xml</dc:format>
        <dc:type
           rdf:resource="http://purl.org/dc/dcmitype/StillImage" />
        <dc:title></dc:title>
      </cc:Work>
    </rdf:RDF>
  </metadata>
  <g
     transform="translate(-3.4499992,-246.2)"
     style="display:inline"
     id="g1809"
     inkscape:groupmode="layer"
     inkscape:label="bottom">
    <path
       inkscape:export-ydpi="1278.5"
       inkscape:export-xdpi="1278.5"
       transform="matrix(0.99786129,0,0,1,-63.777314,166.68751)"
       inkscape:transform-center-y="-3.0197514e-06"
       inkscape:transform-center-x="4.3097664e-06"
       style="fill:#2a9bd3;fill-opacity:1;stroke-width:0.16493505"
       d="m 89.368447,130.31249 -21.997045,-12.7 -10e-7,-25.399998 21.997045,-12.700001 21.997044,12.699999 0,25.4 z"
       inkscape:randomized="0"
       inkscape:rounded="0"
       inkscape:flatsided="true"
       sodipodi:arg2="2.0943951"
       sodipodi:arg1="1.5707963"
       sodipodi:r2="21.997046"
       sodipodi:r1="25.4"
       sodipodi:cy="104.91249"
       sodipodi:cx="89.368446"
       sodipodi:sides="6"
       id="path1807"
       sodipodi:type="star" />
  </g>
  <g
     inkscape:label="top"
     inkscape:groupmode="layer"
     id="layer1"
     style="display:inline"
     transform="translate(-3.4499992,-246.2)">
    <path
       style="fill:#93be25;fill-opacity:1;stroke-width:0.16475858"
       inkscape:transform-center-x="4.3097664e-06"
       inkscape:transform-center-y="-3.0197514e-06"
       d="M 25.400001,297 3.4500009,284.3 c 43.8999971,-25.4 0,0 43.8999971,-25.4 v 25.4 z"
       id="path3733"
       inkscape:connector-curvature="0"
       sodipodi:nodetypes="ccccc" />
  </g>
  <g
     inkscape:groupmode="layer"
     id="layer2"
     inkscape:label="Calque 2"
     style="display:inline"
     transform="translate(-3.4499992,-246.2)">
    <path
       transform="matrix(0.91830515,0,0,0.92027336,-56.667505,175.05183)"
       inkscape:transform-center-y="0.95798982"
       inkscape:transform-center-x="0.82787096"
       style="fill:#ffffff;fill-opacity:1;stroke-width:0.16493505"
       d="m 89.368447,130.31249 -21.997045,-12.7 -10e-7,-25.399998 21.997045,-12.700001 21.997044,12.699999 0,25.4 z"
       inkscape:randomized="0"
       inkscape:rounded="0"
       inkscape:flatsided="true"
       sodipodi:arg2="2.0943951"
       sodipodi:arg1="1.5707963"
       sodipodi:r2="21.997046"
       sodipodi:r1="25.4"
       sodipodi:cy="104.91249"
       sodipodi:cx="89.368446"
       sodipodi:sides="6"
       id="path3735"
       sodipodi:type="star"
       inkscape:export-xdpi="1358.7406"
       inkscape:export-ydpi="1358.7406" />
    <path
       style="opacity:0;fill:#001a34;fill-opacity:0;stroke-width:0.09354433"
       d="M 15.039964,289.48639 4.7734739,283.53537 V 271.59953 259.6637 L 14.94642,253.78144 c 5.595121,-3.23524 10.237906,-5.92127 10.317302,-5.96895 0.108689,-0.0653 2.691527,1.3869 10.453578,5.87744 l 10.309225,5.96414 v 11.94512 11.94513 l -10.292,5.95496 c -5.660599,3.27523 -10.322615,5.95117 -10.360034,5.94654 -0.03742,-0.005 -4.687957,-2.68638 -10.334527,-5.95943 z"
       id="path3739"
       inkscape:connector-curvature="0" />
    <path
       style="opacity:0;fill:#001a34;fill-opacity:0;stroke-width:0.09354433"
       d="M 15.039964,289.48639 4.7734739,283.53537 V 271.59953 259.6637 L 14.94642,253.78144 c 5.595121,-3.23524 10.237906,-5.92127 10.317302,-5.96895 0.108689,-0.0653 2.691527,1.3869 10.453578,5.87744 l 10.309225,5.96414 v 11.94512 11.94513 l -10.292,5.95496 c -5.660599,3.27523 -10.322615,5.95117 -10.360034,5.94654 -0.03742,-0.005 -4.687957,-2.68638 -10.334527,-5.95943 z"
       id="path4546"
       inkscape:connector-curvature="0" />
    <path
       style="opacity:0;fill:#001a34;fill-opacity:0;stroke-width:0.09354433"
       d="M 15.039964,289.48639 4.7734739,283.53537 V 271.59953 259.6637 L 14.94642,253.78144 c 5.595121,-3.23524 10.237906,-5.92127 10.317302,-5.96895 0.108689,-0.0653 2.691527,1.3869 10.453578,5.87744 l 10.309225,5.96414 v 11.94512 11.94513 l -10.292,5.95496 c -5.660599,3.27523 -10.322615,5.95117 -10.360034,5.94654 -0.03742,-0.005 -4.687957,-2.68638 -10.334527,-5.95943 z"
       id="path4548"
       inkscape:connector-curvature="0" />
    <path
       style="opacity:0;fill:#006f34;fill-opacity:0;stroke-width:0.09354433"
       d="M 15.039964,289.48639 4.7734739,283.53537 V 271.59953 259.6637 L 14.94642,253.78144 c 5.595121,-3.23524 10.237906,-5.92127 10.317302,-5.96895 0.108689,-0.0653 2.691527,1.3869 10.453578,5.87744 l 10.309225,5.96414 v 11.94512 11.94513 l -10.292,5.95496 c -5.660599,3.27523 -10.322615,5.95117 -10.360034,5.94654 -0.03742,-0.005 -4.687957,-2.68638 -10.334527,-5.95943 z"
       id="path4550"
       inkscape:connector-curvature="0" />
    <path
       style="opacity:0;fill:#001a34;fill-opacity:1;stroke-width:0.09354433"
       d="M 15.039964,289.48639 4.7734739,283.53537 V 271.59953 259.6637 L 14.94642,253.78144 c 5.595121,-3.23524 10.237906,-5.92127 10.317302,-5.96895 0.108689,-0.0653 2.691527,1.3869 10.453578,5.87744 l 10.309225,5.96414 v 11.94512 11.94513 l -10.292,5.95496 c -5.660599,3.27523 -10.322615,5.95117 -10.360034,5.94654 -0.03742,-0.005 -4.687957,-2.68638 -10.334527,-5.95943 z"
       id="path4552"
       inkscape:connector-curvature="0" />
    <path
       style="opacity:0;fill:#001a34;fill-opacity:1;stroke-width:0.09354433"
       d="M 15.039964,289.48639 4.7734739,283.53537 V 271.59953 259.6637 L 14.94642,253.78144 c 5.595121,-3.23524 10.237906,-5.92127 10.317302,-5.96895 0.108689,-0.0653 2.691527,1.3869 10.453578,5.87744 l 10.309225,5.96414 v 11.94512 11.94513 l -10.292,5.95496 c -5.660599,3.27523 -10.322615,5.95117 -10.360034,5.94654 -0.03742,-0.005 -4.687957,-2.68638 -10.334527,-5.95943 z"
       id="path4554"
       inkscape:connector-curvature="0" />
    <path
       style="opacity:0;fill:#001a34;fill-opacity:1;stroke-width:0.09354433"
       d="M 15.039964,289.48639 4.7734739,283.53537 V 271.59953 259.6637 L 14.94642,253.78144 c 5.595121,-3.23524 10.237906,-5.92127 10.317302,-5.96895 0.108689,-0.0653 2.691527,1.3869 10.453578,5.87744 l 10.309225,5.96414 v 11.94512 11.94513 l -10.292,5.95496 c -5.660599,3.27523 -10.322615,5.95117 -10.360034,5.94654 -0.03742,-0.005 -4.687957,-2.68638 -10.334527,-5.95943 z"
       id="path4556"
       inkscape:connector-curvature="0" />
    <path
       style="opacity:0;fill:#001a34;fill-opacity:1;stroke-width:0.09354433"
       d="m 15.040065,289.47854 -10.2664909,-5.95288 0.00145,-11.93003 0.00145,-11.93003 10.2585569,-5.93227 c 5.642204,-3.26275 10.306749,-5.93227 10.365653,-5.93227 0.0589,0 4.723198,2.66952 10.365094,5.93227 l 10.257996,5.93227 0.0013,11.93032 0.0013,11.93032 -10.256522,5.93665 c -5.641084,3.26515 -10.3031,5.94382 -10.360035,5.95259 -0.05693,0.009 -4.723435,-2.66285 -10.370004,-5.93694 z"
       id="path4558"
       inkscape:connector-curvature="0" />
    <path
       style="opacity:0;fill:#001a34;fill-opacity:1;stroke-width:0.09354433"
       d="m 15.040065,289.47854 -10.2664909,-5.95288 0.00145,-11.93003 0.00145,-11.93003 10.2585569,-5.93227 c 5.642204,-3.26275 10.306749,-5.93227 10.365653,-5.93227 0.0589,0 4.723198,2.66952 10.365094,5.93227 l 10.257996,5.93227 0.0013,11.93032 0.0013,11.93032 -10.256522,5.93665 c -5.641084,3.26515 -10.3031,5.94382 -10.360035,5.95259 -0.05693,0.009 -4.723435,-2.66285 -10.370004,-5.93694 z"
       id="path4560"
       inkscape:connector-curvature="0" />
    <path
       style="opacity:0;fill:#001a34;fill-opacity:1;stroke-width:0.09354433"
       d="m 15.040065,289.47854 -10.2664909,-5.95288 0.00145,-11.93003 0.00145,-11.93003 10.2585569,-5.93227 c 5.642204,-3.26275 10.306749,-5.93227 10.365653,-5.93227 0.0589,0 4.723198,2.66952 10.365094,5.93227 l 10.257996,5.93227 0.0013,11.93032 0.0013,11.93032 -10.256522,5.93665 c -5.641084,3.26515 -10.3031,5.94382 -10.360035,5.95259 -0.05693,0.009 -4.723435,-2.66285 -10.370004,-5.93694 z"
       id="path4562"
       inkscape:connector-curvature="0" />
  </g>
  <g
     inkscape:groupmode="layer"
     id="layer3"
     inkscape:label="Calque 3"
     style="display:inline"
     transform="translate(-3.4499992,2.0299683e-5)">
    <g
       id="g964"
       transform="matrix(0.14047176,0,0,-0.14047176,18.737523,22.338861)" />
    <g
       id="g1949"
       transform="matrix(1.465394,0,0,1.465394,-1.8923643,-16.864638)">
      <g
         transform="translate(2.1361766)"
         id="g1883">
        <g
           id="g960"
           transform="matrix(0.14047176,0,0,-0.14047176,10.514643,25.771948)">
          <path
             d="M 0,0 V 24.534 H 9.444 V 0.245 c 0,-6.992 3.496,-10.61 9.262,-10.61 5.766,0 9.262,3.494 9.262,10.302 v 24.597 h 9.445 V 0.307 c 0,-13.004 -7.299,-19.382 -18.828,-19.382 C 7.052,-19.075 0,-12.637 0,0"
             style="fill:#3d3d3c;fill-opacity:1;fill-rule:nonzero;stroke:none"
             id="path962"
             inkscape:connector-curvature="0" />
        </g>
        <path
           transform="matrix(0.14047176,0,0,-0.14047176,16.691692,22.363724)"
           d="M 0,0 H 10.316 L 21.75,-18.394 33.185,0 h 10.316 v -43.501 h -9.509 v 28.398 L 21.75,-33.685 H 21.502 L 9.384,-15.286 V -43.501 H 0 Z"
           style="display:inline;fill:#3d3d3c;fill-opacity:1;fill-rule:nonzero;stroke:none"
           id="path966"
           inkscape:connector-curvature="0" />
        <g
           id="g968"
           transform="matrix(0.14047176,0,0,-0.14047176,26.538158,25.331611)">
          <path
             d="m 0,0 c 4.661,0 7.334,2.484 7.334,6.151 v 0.124 c 0,4.102 -2.859,6.214 -7.522,6.214 H -9.694 V 0 Z M -19.266,21.128 H 0.621 c 5.531,0 9.817,-1.554 12.678,-4.411 2.424,-2.424 3.728,-5.842 3.728,-9.944 V 6.648 c 0,-7.022 -3.794,-11.437 -9.324,-13.485 L 18.33,-22.373 H 7.145 l -9.32,13.92 h -7.519 v -13.92 h -9.572 z"
             style="fill:#3d3d3c;fill-opacity:1;fill-rule:nonzero;stroke:none"
             id="path970"
             inkscape:connector-curvature="0" />
        </g>
      </g>
      <g
         transform="matrix(1.1984357,0,0,2.1505654,0.66696185,-25.860049)"
         id="g1913">
        <path
           d="M 9.1160498,22.42112 H 4.4499994 v 0.280663 h 4.6660504 z"
           style="fill:#fdea1b;fill-opacity:1;fill-rule:nonzero;stroke:none;stroke-width:0.14047176"
           id="path972"
           inkscape:connector-curvature="0" />
        <path
           d="M 9.1160498,22.930752 H 4.4499994 v 0.559639 h 4.6660504 z"
           style="fill:#fcc207;fill-opacity:1;fill-rule:nonzero;stroke:none;stroke-width:0.14047176"
           id="path974"
           inkscape:connector-curvature="0" />
        <path
           d="M 9.1160498,25.10385 H 4.4499994 v 0.352865 h 4.6660504 z"
           style="fill:#bd1723;fill-opacity:1;fill-rule:nonzero;stroke:none;stroke-width:0.14047176"
           id="path976"
           inkscape:connector-curvature="0" />
        <path
           d="M 9.1160498,26.14615 H 4.4499994 v 1.209743 h 4.6660504 z"
           style="fill:#93be25;fill-opacity:1;fill-rule:nonzero;stroke:none;stroke-width:0.14047176"
           id="path978"
           inkscape:connector-curvature="0" />
        <path
           d="M 9.1160498,24.164515 H 4.4499994 v 0.55978 h 4.6660504 z"
           style="fill:#e75020;fill-opacity:1;fill-rule:nonzero;stroke:none;stroke-width:0.14047176"
           id="path980"
           inkscape:connector-curvature="0" />
        <path
           d="M 9.1160498,27.791918 H 4.4499994 v 0.674124 h 4.6660504 z"
           style="fill:#2a9bd3;fill-opacity:1;fill-rule:nonzero;stroke:none;stroke-width:0.14047176"
           id="path982"
           inkscape:connector-curvature="0" />
      </g>
      <g
         transform="translate(-12.955063,6.8590162)"
         id="g1905">
        <g
           id="g984"
           transform="matrix(0.14047176,0,0,-0.14047176,30.797992,24.902919)">
          <path
             d="m 0,0 c 0.115,1.374 0.261,3.591 0.438,6.655 0.176,3.065 0.278,5.256 0.301,6.576 -0.327,-0.206 -0.644,-0.405 -0.954,-0.605 -0.307,-0.197 -0.98,-0.67 -2.014,-1.414 0.052,0.752 0.098,1.635 0.145,2.65 0.041,1.014 0.064,1.76 0.064,2.239 0.451,0.255 0.961,0.562 1.532,0.916 0.57,0.354 0.922,0.579 1.049,0.672 0.127,0.092 0.318,0.242 0.575,0.446 0.787,-0.018 1.697,-0.028 2.728,-0.028 0.973,0 1.97,0.01 2.993,0.028 L 6.585,15.171 6.017,5.342 5.885,1.726 V 0 C 5.133,0.018 4.218,0.025 3.136,0.025 1.876,0.025 0.833,0.018 0,0"
             style="fill:#2a9bd3;fill-opacity:1;fill-rule:nonzero;stroke:none"
             id="path986"
             inkscape:connector-curvature="0" />
        </g>
        <g
           id="g988"
           transform="matrix(0.14047176,0,0,-0.14047176,32.238109,24.970823)">
          <path
             d="m 0,0 c 0.035,0.418 0.067,0.978 0.087,1.668 0.022,0.692 0.053,1.4 0.09,2.126 0.928,0.759 1.781,1.497 2.561,2.214 1.26,1.162 2.379,2.253 3.351,3.274 0.781,0.814 1.432,1.558 1.962,2.239 0.304,0.401 0.503,0.737 0.601,1.006 0.072,0.187 0.11,0.381 0.11,0.577 0,0.26 -0.061,0.484 -0.177,0.677 -0.116,0.195 -0.298,0.356 -0.552,0.492 -0.247,0.133 -0.551,0.241 -0.912,0.32 -0.355,0.082 -0.764,0.122 -1.217,0.122 -0.627,0 -1.287,-0.054 -1.979,-0.162 C 3.232,14.445 2.285,14.24 1.09,13.937 l 0.345,1.918 c 0.084,0.383 0.199,1.122 0.349,2.212 2.354,0.394 4.557,0.59 6.615,0.59 0.938,0 1.835,-0.084 2.694,-0.254 0.862,-0.17 1.63,-0.459 2.31,-0.867 0.676,-0.405 1.186,-0.879 1.53,-1.42 0.338,-0.541 0.508,-1.125 0.508,-1.751 0,-0.411 -0.05,-0.818 -0.147,-1.22 C 15.193,12.76 15.012,12.309 14.741,11.791 14.403,11.146 13.979,10.511 13.481,9.885 12.739,8.947 11.88,7.977 10.909,6.975 9.978,6.026 8.858,4.963 7.553,3.783 L 9.028,3.77 c 0.348,0 1.035,0.009 2.071,0.025 1.036,0.019 1.754,0.037 2.152,0.056 0.403,0.016 0.901,0.057 1.49,0.12 C 14.715,3.543 14.671,3.004 14.615,2.36 14.558,1.717 14.498,0.929 14.434,0 12.207,0.018 9.876,0.027 7.447,0.027 4.514,0.027 2.03,0.018 0,0"
             style="fill:#2a9bd3;fill-opacity:1;fill-rule:nonzero;stroke:none"
             id="path990"
             inkscape:connector-curvature="0" />
        </g>
        <g
           id="g992"
           transform="matrix(0.14047176,0,0,-0.14047176,35.850172,22.847284)">
          <path
             d="m 0,0 c -0.699,0 -1.253,-0.194 -1.658,-0.584 -0.406,-0.39 -0.612,-0.867 -0.612,-1.435 0,-0.336 0.089,-0.647 0.264,-0.93 0.181,-0.281 0.429,-0.494 0.746,-0.63 0.32,-0.139 0.665,-0.207 1.036,-0.207 0.644,0 1.188,0.188 1.621,0.565 0.435,0.375 0.651,0.866 0.651,1.467 0,0.532 -0.187,0.957 -0.551,1.275 C 1.129,-0.159 0.628,0 0,0 m -0.331,-7.293 c -0.797,0 -1.418,-0.202 -1.866,-0.605 -0.45,-0.403 -0.67,-0.922 -0.67,-1.559 0,-0.373 0.096,-0.719 0.298,-1.039 0.2,-0.317 0.488,-0.56 0.864,-0.723 0.376,-0.164 0.786,-0.246 1.229,-0.246 0.459,0 0.875,0.088 1.256,0.266 0.374,0.176 0.673,0.44 0.894,0.792 0.222,0.348 0.333,0.75 0.333,1.202 0,0.602 -0.208,1.069 -0.616,1.408 -0.413,0.334 -0.986,0.504 -1.722,0.504 m -4.024,1.78 c -0.517,0.249 -0.894,0.458 -1.14,0.631 -0.238,0.173 -0.474,0.383 -0.701,0.631 -0.227,0.248 -0.416,0.522 -0.564,0.823 -0.151,0.303 -0.259,0.614 -0.318,0.931 -0.066,0.319 -0.094,0.639 -0.094,0.958 0,0.857 0.194,1.633 0.585,2.324 0.389,0.69 0.964,1.258 1.725,1.706 0.761,0.447 1.576,0.755 2.448,0.924 0.865,0.168 1.778,0.253 2.735,0.253 0.912,0 1.792,-0.105 2.642,-0.313 C 3.813,3.147 4.545,2.821 5.15,2.379 5.755,1.935 6.198,1.43 6.486,0.857 6.769,0.287 6.91,-0.397 6.91,-1.195 6.91,-1.575 6.871,-1.943 6.796,-2.298 6.722,-2.652 6.603,-2.98 6.445,-3.274 6.284,-3.571 6.089,-3.842 5.859,-4.091 5.629,-4.34 5.387,-4.557 5.13,-4.742 4.874,-4.928 4.442,-5.172 3.839,-5.474 c 0.568,-0.161 1,-0.303 1.303,-0.43 0.3,-0.129 0.591,-0.305 0.872,-0.532 0.277,-0.226 0.516,-0.492 0.72,-0.798 0.195,-0.303 0.338,-0.629 0.428,-0.975 0.088,-0.346 0.134,-0.711 0.134,-1.09 0,-0.885 -0.22,-1.731 -0.65,-2.537 -0.437,-0.808 -1.03,-1.454 -1.774,-1.939 -0.751,-0.489 -1.622,-0.841 -2.614,-1.057 -0.99,-0.217 -2.003,-0.326 -3.043,-0.326 -0.99,0 -1.944,0.099 -2.863,0.293 -0.913,0.193 -1.731,0.519 -2.444,0.977 -0.721,0.454 -1.247,0.993 -1.574,1.613 -0.325,0.619 -0.491,1.324 -0.491,2.113 0,0.459 0.062,0.908 0.179,1.342 0.121,0.433 0.305,0.843 0.548,1.228 0.242,0.385 0.526,0.707 0.843,0.97 0.317,0.261 0.63,0.466 0.935,0.61 0.305,0.148 0.735,0.315 1.297,0.499"
             style="fill:#2a9bd3;fill-opacity:1;fill-rule:nonzero;stroke:none"
             id="path994"
             inkscape:connector-curvature="0" />
        </g>
        <g
           id="g996"
           transform="matrix(0.14047176,0,0,-0.14047176,37.325406,24.893999)">
          <path
             d="M 0,0 C -0.118,1.797 -0.231,3.227 -0.348,4.289 1.63,3.624 3.412,3.293 5.004,3.293 c 0.987,0 1.779,0.197 2.387,0.592 0.607,0.392 0.913,0.922 0.913,1.587 0,0.646 -0.31,1.119 -0.923,1.421 -0.617,0.3 -1.577,0.451 -2.879,0.451 -0.84,0 -1.612,-0.049 -2.313,-0.147 0.125,1.382 0.226,2.742 0.304,4.08 0.64,-0.115 1.31,-0.173 2.009,-0.173 0.796,0 1.456,0.051 1.985,0.152 0.526,0.101 0.928,0.301 1.202,0.598 0.274,0.292 0.412,0.613 0.412,0.957 0,0.308 -0.107,0.586 -0.324,0.835 -0.216,0.246 -0.545,0.419 -0.976,0.521 -0.436,0.103 -0.975,0.152 -1.622,0.152 -0.561,0 -1.15,-0.032 -1.78,-0.092 C 2.771,14.164 1.915,14.023 0.836,13.8 l 0.663,3.093 c 0.054,0.276 0.107,0.569 0.16,0.881 1.922,0.229 3.683,0.344 5.286,0.344 1.045,0 2.051,-0.07 3.019,-0.212 0.964,-0.141 1.789,-0.399 2.474,-0.778 0.689,-0.374 1.193,-0.864 1.513,-1.466 0.327,-0.603 0.488,-1.28 0.488,-2.033 0,-0.452 -0.06,-0.887 -0.178,-1.303 C 14.141,11.91 13.954,11.523 13.706,11.164 13.46,10.807 13.168,10.488 12.831,10.214 12.494,9.939 12.166,9.717 11.85,9.55 11.528,9.381 11.104,9.191 10.574,8.979 c 0.559,-0.116 0.992,-0.235 1.311,-0.36 0.311,-0.123 0.628,-0.303 0.946,-0.537 0.317,-0.234 0.589,-0.51 0.81,-0.824 0.222,-0.315 0.385,-0.667 0.493,-1.057 0.105,-0.39 0.157,-0.805 0.157,-1.248 0,-0.877 -0.201,-1.687 -0.603,-2.43 C 13.285,1.777 12.692,1.16 11.905,0.668 11.125,0.178 10.226,-0.176 9.212,-0.388 8.199,-0.6 7.176,-0.707 6.146,-0.707 c -1,0 -1.953,0.053 -2.86,0.154 C 2.377,-0.451 1.279,-0.268 0,0"
             style="fill:#2a9bd3;fill-opacity:1;fill-rule:nonzero;stroke:none"
             id="path998"
             inkscape:connector-curvature="0" />
        </g>
        <g
           id="g1000"
           transform="matrix(0.14047176,0,0,-0.14047176,33.247876,28.466983)">
          <path
             d="m 0,0 c 0.122,1.452 0.276,3.8 0.469,7.043 0.188,3.247 0.295,5.563 0.323,6.961 -0.349,-0.217 -0.691,-0.43 -1.025,-0.642 -0.333,-0.21 -1.061,-0.71 -2.17,-1.497 0.055,0.798 0.105,1.732 0.152,2.805 0.048,1.074 0.072,1.864 0.072,2.371 0.486,0.271 1.038,0.596 1.651,0.969 0.611,0.375 0.99,0.611 1.129,0.709 0.138,0.097 0.346,0.256 0.62,0.472 0.848,-0.019 1.832,-0.029 2.939,-0.029 1.051,0 2.126,0.01 3.226,0.029 L 7.099,16.056 6.481,5.653 6.34,1.828 V 0 C 5.528,0.018 4.54,0.025 3.38,0.025 2.021,0.025 0.893,0.018 0,0"
             style="fill:#93be25;fill-opacity:1;fill-rule:nonzero;stroke:none"
             id="path1002"
             inkscape:connector-curvature="0" />
        </g>
        <g
           id="g1004"
           transform="matrix(0.14047176,0,0,-0.14047176,31.542057,26.247557)">
          <path
             d="m 0,0 c -0.724,0 -1.297,-0.205 -1.718,-0.608 -0.422,-0.402 -0.631,-0.898 -0.631,-1.483 0,-0.347 0.091,-0.67 0.276,-0.962 0.182,-0.293 0.436,-0.51 0.77,-0.652 0.329,-0.143 0.683,-0.214 1.07,-0.214 0.667,0 1.227,0.196 1.674,0.585 0.449,0.389 0.677,0.896 0.677,1.52 0,0.547 -0.193,0.986 -0.573,1.318 C 1.164,-0.166 0.648,0 0,0 m -0.344,-7.548 c -0.825,0 -1.469,-0.205 -1.93,-0.624 -0.461,-0.418 -0.694,-0.956 -0.694,-1.614 0,-0.384 0.103,-0.742 0.31,-1.071 0.206,-0.331 0.504,-0.58 0.894,-0.752 0.388,-0.167 0.814,-0.251 1.27,-0.251 0.477,0 0.909,0.09 1.3,0.271 0.389,0.188 0.695,0.456 0.923,0.822 0.231,0.358 0.344,0.775 0.344,1.241 0,0.624 -0.211,1.107 -0.635,1.457 -0.428,0.348 -1.023,0.521 -1.782,0.521 m -4.14,1.728 c -0.533,0.258 -0.923,0.472 -1.174,0.653 -0.253,0.177 -0.495,0.396 -0.731,0.652 -0.231,0.26 -0.424,0.541 -0.583,0.854 -0.153,0.313 -0.266,0.631 -0.329,0.962 -0.063,0.328 -0.098,0.659 -0.098,0.987 0,0.891 0.203,1.692 0.607,2.405 0.402,0.716 0.998,1.304 1.786,1.767 0.788,0.463 1.63,0.779 2.527,0.954 0.901,0.178 1.843,0.263 2.832,0.263 0.943,0 1.856,-0.109 2.734,-0.323 C 3.969,3.139 4.724,2.802 5.346,2.345 5.976,1.885 6.436,1.362 6.73,0.77 7.023,0.18 7.164,-0.531 7.164,-1.354 7.164,-1.747 7.13,-2.126 7.051,-2.494 6.974,-2.862 6.854,-3.197 6.689,-3.504 6.522,-3.81 6.319,-4.093 6.083,-4.351 5.847,-4.605 5.595,-4.829 5.327,-5.021 5.063,-5.215 4.616,-5.467 3.992,-5.778 4.581,-5.945 5.031,-6.093 5.339,-6.224 5.65,-6.359 5.953,-6.54 6.24,-6.776 6.529,-7.007 6.778,-7.282 6.982,-7.599 7.19,-7.913 7.335,-8.25 7.43,-8.607 7.52,-8.966 7.567,-9.34 7.567,-9.734 c 0,-0.917 -0.226,-1.795 -0.672,-2.628 -0.45,-0.832 -1.062,-1.502 -1.835,-2.004 -0.775,-0.504 -1.674,-0.868 -2.701,-1.094 -1.026,-0.225 -2.076,-0.333 -3.146,-0.333 -1.027,0 -2.015,0.099 -2.962,0.299 -0.95,0.201 -1.797,0.54 -2.535,1.013 -0.744,0.47 -1.282,1.025 -1.621,1.667 -0.338,0.643 -0.509,1.369 -0.509,2.187 0,0.475 0.061,0.938 0.185,1.386 0.125,0.45 0.313,0.872 0.564,1.27 0.254,0.4 0.541,0.734 0.873,1.005 0.33,0.27 0.652,0.481 0.967,0.633 0.316,0.148 0.762,0.325 1.341,0.513"
             style="fill:#93be25;fill-opacity:1;fill-rule:nonzero;stroke:none"
             id="path1006"
             inkscape:connector-curvature="0" />
        </g>
        <g
           id="g1008"
           transform="matrix(0.14047176,0,0,-0.14047176,34.874146,28.466983)">
          <path
             d="m 0,0 c 0.811,0.991 1.573,1.947 2.284,2.87 0.714,0.924 1.429,1.905 2.154,2.95 0.72,1.047 1.27,1.906 1.644,2.578 0.378,0.67 0.687,1.302 0.919,1.904 0.236,0.593 0.394,1.079 0.472,1.451 0.079,0.376 0.117,0.742 0.117,1.105 0,0.495 -0.089,0.935 -0.259,1.324 -0.169,0.385 -0.427,0.677 -0.776,0.875 -0.353,0.196 -0.738,0.294 -1.16,0.294 -0.716,0 -1.324,-0.236 -1.826,-0.707 -0.505,-0.471 -0.753,-1.094 -0.753,-1.87 0,-0.447 0.093,-0.83 0.288,-1.152 0.194,-0.321 0.48,-0.571 0.854,-0.742 0.378,-0.171 0.762,-0.258 1.146,-0.258 0.239,0 2.294,-0.147 2.701,0.11 C 6.503,9.907 6.077,7.981 5.176,6.572 4.861,6.525 2.856,6.704 2.635,6.704 c -0.606,0 -1.266,0.113 -1.974,0.35 -0.715,0.23 -1.348,0.586 -1.895,1.055 -0.545,0.47 -0.963,1.079 -1.246,1.819 -0.287,0.742 -0.428,1.524 -0.428,2.341 0,1.104 0.239,2.14 0.715,3.108 0.481,0.974 1.148,1.767 2.009,2.386 0.86,0.622 1.798,1.058 2.814,1.317 1.014,0.255 2.111,0.383 3.289,0.383 1.086,0 2.13,-0.145 3.135,-0.432 1,-0.29 1.821,-0.732 2.459,-1.332 0.639,-0.595 1.114,-1.311 1.426,-2.145 0.315,-0.837 0.469,-1.641 0.469,-2.413 0,-0.551 -0.06,-1.167 -0.192,-1.85 C 13.088,10.612 12.883,9.894 12.603,9.137 12.322,8.38 11.932,7.522 11.437,6.557 10.941,5.591 10.355,4.598 9.682,3.584 9.003,2.566 8.172,1.374 7.19,0 Z"
             style="fill:#93be25;fill-opacity:1;fill-rule:nonzero;stroke:none"
             id="path1010"
             inkscape:connector-curvature="0" />
        </g>
        <g
           id="g1012"
           transform="matrix(0.14047176,0,0,-0.14047176,37.485221,28.466983)">
          <path
             d="m 0,0 c 0.808,0.991 1.57,1.947 2.283,2.87 0.709,0.924 1.431,1.905 2.152,2.95 0.723,1.047 1.271,1.906 1.647,2.578 0.379,0.67 0.683,1.302 0.919,1.904 0.233,0.593 0.391,1.079 0.467,1.451 0.078,0.376 0.119,0.742 0.119,1.105 0,0.495 -0.086,0.935 -0.255,1.324 -0.17,0.385 -0.431,0.677 -0.78,0.875 -0.35,0.196 -0.738,0.294 -1.157,0.294 -0.718,0 -1.331,-0.236 -1.831,-0.707 -0.501,-0.473 -0.751,-1.094 -0.751,-1.87 0,-0.447 0.094,-0.83 0.29,-1.152 0.195,-0.321 0.478,-0.571 0.856,-0.742 0.377,-0.171 0.758,-0.258 1.145,-0.258 0.239,0 2.291,-0.147 2.694,0.11 C 6.502,9.907 6.077,7.981 5.173,6.572 4.861,6.525 2.856,6.704 2.633,6.704 c -0.607,0 -1.263,0.113 -1.979,0.35 -0.711,0.23 -1.341,0.586 -1.887,1.055 -0.551,0.47 -0.966,1.079 -1.25,1.819 -0.287,0.742 -0.427,1.524 -0.427,2.341 0,1.104 0.238,2.14 0.713,3.108 0.479,0.974 1.149,1.767 2.01,2.386 0.86,0.622 1.798,1.058 2.811,1.317 1.02,0.255 2.115,0.383 3.293,0.383 1.084,0 2.129,-0.145 3.13,-0.432 1.004,-0.29 1.824,-0.732 2.464,-1.332 0.639,-0.595 1.117,-1.311 1.426,-2.145 0.314,-0.837 0.471,-1.641 0.471,-2.413 0,-0.551 -0.066,-1.167 -0.195,-1.85 C 13.084,10.612 12.879,9.894 12.601,9.137 12.32,8.38 11.932,7.522 11.436,6.557 10.938,5.591 10.35,4.598 9.676,3.584 8.999,2.566 8.168,1.374 7.185,0 Z"
             style="fill:#93be25;fill-opacity:1;fill-rule:nonzero;stroke:none"
             id="path1014"
             inkscape:connector-curvature="0" />
        </g>
        <g
           id="g1016"
           transform="matrix(0.14047176,0,0,-0.14047176,35.043836,25.141201)">
          <path
             d="m 0,0 -31.967,-0.945 0.071,-2.414 32.569,1.019 z"
             style="fill:#2a9bd3;fill-opacity:1;fill-rule:nonzero;stroke:none"
             id="path1018"
             inkscape:connector-curvature="0" />
        </g>
        <g
           id="g1020"
           transform="matrix(0.14047176,0,0,-0.14047176,34.95097,25.141201)">
          <path
             d="M 0,0 31.972,0.773 32.028,-1.639 1.334,-2.34 Z"
             style="fill:#93be25;fill-opacity:1;fill-rule:nonzero;stroke:none"
             id="path1022"
             inkscape:connector-curvature="0" />
        </g>
      </g>
    </g>
  </g>
</svg>
